<?xml version="1.0" encoding="utf-8"?>
<!-- Generator: Adobe Illustrator 23.0.3, SVG Export Plug-In . SVG Version: 6.00 Build 0)  -->
<svg version="1.1" id="Layer_1" xmlns="http://www.w3.org/2000/svg" xmlns:xlink="http://www.w3.org/1999/xlink" x="0px" y="0px"
	 viewBox="0 0 800 500" style="enable-background:new 0 0 800 500;" xml:space="preserve">
<style type="text/css">
	.st0{fill:#FFFFFF;}
	.st1{font-family:'HelveticaNeue';}
	.st2{font-size:30.8307px;}
	.st3{font-size:30.86px;}
	.st4{font-size:30.9124px;}
	.st5{font-size:30.9155px;}
	.st6{font-size:30.8059px;}
	.st7{font-family:'HelveticaNeue-Bold';}
	.st8{font-size:40.1995px;}
	.st9{font-size:40.0679px;}
	.st10{font-size:40.0899px;}
	.st11{font-size:40px;}
	.st12{font-size:40.032px;}
	.st13{font-size:40.008px;}
</style>
<title>Portfolio Graphics</title>
<g>
	<path class="st0" d="M0,0v500h800V0H0z M400,402.5c-84.2,0-152.5-68.3-152.5-152.5c0-84.2,68.3-152.5,152.5-152.5
		S552.5,165.8,552.5,250S484.2,402.5,400,402.5L400,402.5z"/>
	<text transform="matrix(0.6606 0.7507 -0.7507 0.6606 256.5295 362.0005)" class="st1 st2">U</text>
	<text transform="matrix(0.7485 0.6631 -0.6631 0.7485 272.5198 379.7599)" class="st1 st3">X</text>
	<text transform="matrix(0.8486 0.5291 -0.5291 0.8486 295.279 398.86)" class="st1 st4">D</text>
	<text transform="matrix(0.9046 0.4263 -0.4263 0.9046 315.18 410.9)" class="st1 st3">e</text>
	<text transform="matrix(0.9411 0.3381 -0.3381 0.9411 331.3201 418.4099)" class="st1 st3">s</text>
	<text transform="matrix(0.9616 0.2745 -0.2745 0.9616 346.74 423.7601)" class="st1 st3">i</text>
	<text transform="matrix(0.9792 0.2031 -0.2031 0.9792 354.2299 426.07)" class="st1 st3">g</text>
	<text transform="matrix(0.9949 0.1009 -0.1009 0.9949 372.9299 429.86)" class="st1 st3">n</text>
	<text transform="matrix(0.9999 1.623085e-02 -1.623085e-02 0.9999 391.53 431.53)" class="st1 st3">e</text>
	<text transform="matrix(0.9971 -7.619696e-02 7.619696e-02 0.9971 408.93 431.52)" class="st1 st3">r</text>
	<text transform="matrix(0.969 -0.2472 0.2472 0.969 430.07 429.85)" class="st1 st3">—</text>
	<text transform="matrix(0.8984 -0.4392 0.4392 0.8984 470.45 417.7992)" class="st1 st5">S</text>
	<text transform="matrix(0.8463 -0.5327 0.5327 0.8463 489.6301 408.26)" class="st1 st3">e</text>
	<text transform="matrix(0.79 -0.613 0.613 0.79 504.7199 398.6902)" class="st1 st3">a</text>
	<text transform="matrix(0.7413 -0.6712 0.6712 0.7413 518.52 387.7593)" class="st1 st6">t</text>
	<text transform="matrix(0.7004 -0.7137 0.7137 0.7004 526.2701 380.69)" class="st1 st3">t</text>
	<text transform="matrix(0.6647 -0.7471 0.7471 0.6647 533.49 373.2605)" class="st1 st3">l</text>
	<text transform="matrix(0.6115 -0.7912 0.7912 0.6115 538.7501 367.5602)" class="st1 st3">e</text>
	<text transform="matrix(0.7363 -0.6766 0.6766 0.7363 281.9902 143.3104)" class="st7 st8">N</text>
	<text transform="matrix(0.8486 -0.5291 0.5291 0.8486 305.7708 122.1404)" class="st7 st9">a</text>
	<text transform="matrix(0.908 -0.4191 0.4191 0.908 327.5391 108.9297)" class="st7 st10">t</text>
	<text transform="matrix(0.9562 -0.2927 0.2927 0.9562 342.59 101.8701)" class="st7 st11">e</text>
	<text transform="matrix(0.9992 3.996804e-02 -3.996804e-02 0.9992 394.5302 91.2497)" class="st7 st12">F</text>
	<text transform="matrix(0.9798 0.2 -0.2 0.9798 420.5303 92.44)" class="st7 st13">o</text>
	<text transform="matrix(0.9453 0.3261 -0.3261 0.9453 446.79 98.5299)" class="st7 st11">l</text>
	<text transform="matrix(0.9005 0.4348 -0.4348 0.9005 459.1102 102.6)" class="st7 st11">s</text>
	<text transform="matrix(0.8201 0.5723 -0.5723 0.8201 480.53 113.0201)" class="st7 st11">o</text>
	<text transform="matrix(0.6876 0.7261 -0.7261 0.6876 502.5703 127.9401)" class="st7 st11">m</text>
</g>
</svg>
